<mxfile host="app.diagrams.net" agent="Mozilla/5.0 (X11; Linux x86_64; rv:134.0) Gecko/20100101 Firefox/134.0" version="26.0.8" pages="2">
  <diagram id="SekUnbRQ1nkt9Ly-Eumw" name="Block Diagram">
    <mxGraphModel dx="2228" dy="1174" grid="1" gridSize="10" guides="1" tooltips="1" connect="1" arrows="1" fold="1" page="1" pageScale="1" pageWidth="1169" pageHeight="827" math="0" shadow="0">
      <root>
        <mxCell id="0" />
        <mxCell id="1" parent="0" />
        <mxCell id="5K6tSxU4w8xS728KpCYq-10" style="edgeStyle=orthogonalEdgeStyle;rounded=0;orthogonalLoop=1;jettySize=auto;html=1;exitX=0;exitY=0.5;exitDx=0;exitDy=0;entryX=1;entryY=0.5;entryDx=0;entryDy=0;strokeWidth=3;" edge="1" parent="1" source="5K6tSxU4w8xS728KpCYq-1" target="5K6tSxU4w8xS728KpCYq-2">
          <mxGeometry relative="1" as="geometry">
            <Array as="points">
              <mxPoint x="605" y="285" />
              <mxPoint x="605" y="415" />
            </Array>
          </mxGeometry>
        </mxCell>
        <mxCell id="5K6tSxU4w8xS728KpCYq-23" style="edgeStyle=orthogonalEdgeStyle;rounded=0;orthogonalLoop=1;jettySize=auto;html=1;exitX=1;exitY=0.25;exitDx=0;exitDy=0;endArrow=classicThin;endFill=1;" edge="1" parent="1" source="5K6tSxU4w8xS728KpCYq-1" target="5K6tSxU4w8xS728KpCYq-21">
          <mxGeometry relative="1" as="geometry" />
        </mxCell>
        <mxCell id="5K6tSxU4w8xS728KpCYq-28" style="edgeStyle=orthogonalEdgeStyle;rounded=0;orthogonalLoop=1;jettySize=auto;html=1;exitX=1;exitY=0.5;exitDx=0;exitDy=0;startArrow=classicThin;startFill=0;endArrow=none;" edge="1" parent="1" source="5K6tSxU4w8xS728KpCYq-1" target="5K6tSxU4w8xS728KpCYq-26">
          <mxGeometry relative="1" as="geometry" />
        </mxCell>
        <mxCell id="5K6tSxU4w8xS728KpCYq-29" style="edgeStyle=orthogonalEdgeStyle;rounded=0;orthogonalLoop=1;jettySize=auto;html=1;exitX=1;exitY=0.75;exitDx=0;exitDy=0;entryX=0;entryY=0.5;entryDx=0;entryDy=0;strokeColor=default;align=center;verticalAlign=middle;fontFamily=Helvetica;fontSize=11;fontColor=default;labelBackgroundColor=default;startArrow=classicThin;startFill=0;endArrow=none;" edge="1" parent="1" source="5K6tSxU4w8xS728KpCYq-1" target="5K6tSxU4w8xS728KpCYq-27">
          <mxGeometry relative="1" as="geometry" />
        </mxCell>
        <mxCell id="5K6tSxU4w8xS728KpCYq-1" value="Raspberry Pi 2B" style="rounded=0;whiteSpace=wrap;html=1;fillColor=#d5e8d4;strokeColor=#82b366;fontStyle=1" vertex="1" parent="1">
          <mxGeometry x="670" y="220" width="120" height="130" as="geometry" />
        </mxCell>
        <mxCell id="5K6tSxU4w8xS728KpCYq-16" style="edgeStyle=orthogonalEdgeStyle;rounded=0;orthogonalLoop=1;jettySize=auto;html=1;exitX=0.5;exitY=0;exitDx=0;exitDy=0;entryX=0.75;entryY=1;entryDx=0;entryDy=0;" edge="1" parent="1" source="5K6tSxU4w8xS728KpCYq-2" target="5K6tSxU4w8xS728KpCYq-15">
          <mxGeometry relative="1" as="geometry" />
        </mxCell>
        <mxCell id="5K6tSxU4w8xS728KpCYq-2" value="&lt;div&gt;HDMI-eDP&lt;/div&gt;&lt;div&gt;Converter&lt;br&gt;&lt;/div&gt;" style="rounded=0;whiteSpace=wrap;html=1;fillColor=#d5e8d4;strokeColor=#82b366;fontStyle=1" vertex="1" parent="1">
          <mxGeometry x="430" y="370" width="100" height="90" as="geometry" />
        </mxCell>
        <mxCell id="5K6tSxU4w8xS728KpCYq-5" style="edgeStyle=orthogonalEdgeStyle;rounded=0;orthogonalLoop=1;jettySize=auto;html=1;exitX=1;exitY=0.5;exitDx=0;exitDy=0;entryX=0.25;entryY=1;entryDx=0;entryDy=0;strokeWidth=2;" edge="1" parent="1" source="5K6tSxU4w8xS728KpCYq-4" target="5K6tSxU4w8xS728KpCYq-2">
          <mxGeometry relative="1" as="geometry" />
        </mxCell>
        <mxCell id="5K6tSxU4w8xS728KpCYq-8" style="edgeStyle=orthogonalEdgeStyle;rounded=0;orthogonalLoop=1;jettySize=auto;html=1;exitX=1;exitY=0.5;exitDx=0;exitDy=0;entryX=0.5;entryY=1;entryDx=0;entryDy=0;strokeWidth=2;" edge="1" parent="1" source="5K6tSxU4w8xS728KpCYq-4" target="5K6tSxU4w8xS728KpCYq-7">
          <mxGeometry relative="1" as="geometry" />
        </mxCell>
        <mxCell id="5K6tSxU4w8xS728KpCYq-4" value="&lt;div&gt;AC-DC&lt;/div&gt;&lt;div&gt;Adapter&lt;br&gt;&lt;/div&gt;" style="rounded=0;whiteSpace=wrap;html=1;fontStyle=1;fillColor=#647687;fontColor=#ffffff;strokeColor=#314354;" vertex="1" parent="1">
          <mxGeometry x="295" y="500" width="120" height="60" as="geometry" />
        </mxCell>
        <mxCell id="5K6tSxU4w8xS728KpCYq-9" style="edgeStyle=orthogonalEdgeStyle;rounded=0;orthogonalLoop=1;jettySize=auto;html=1;exitX=0.5;exitY=0;exitDx=0;exitDy=0;entryX=0.5;entryY=1;entryDx=0;entryDy=0;strokeWidth=2;" edge="1" parent="1" source="5K6tSxU4w8xS728KpCYq-7" target="5K6tSxU4w8xS728KpCYq-1">
          <mxGeometry relative="1" as="geometry" />
        </mxCell>
        <mxCell id="5K6tSxU4w8xS728KpCYq-7" value="&lt;div&gt;Step-Down&lt;/div&gt;&lt;div&gt;Regulator&lt;/div&gt;&lt;div&gt;(LM2596)&lt;br&gt;&lt;/div&gt;" style="rounded=0;whiteSpace=wrap;html=1;fillColor=#1ba1e2;fontColor=#000000;strokeColor=#006EAF;fontStyle=1" vertex="1" parent="1">
          <mxGeometry x="670" y="400" width="120" height="60" as="geometry" />
        </mxCell>
        <mxCell id="5K6tSxU4w8xS728KpCYq-11" value="12VDC" style="text;html=1;align=center;verticalAlign=middle;whiteSpace=wrap;rounded=0;" vertex="1" parent="1">
          <mxGeometry x="550" y="500" width="60" height="30" as="geometry" />
        </mxCell>
        <mxCell id="5K6tSxU4w8xS728KpCYq-12" value="5VDC" style="text;html=1;align=center;verticalAlign=middle;whiteSpace=wrap;rounded=0;" vertex="1" parent="1">
          <mxGeometry x="731" y="367" width="60" height="30" as="geometry" />
        </mxCell>
        <mxCell id="5K6tSxU4w8xS728KpCYq-13" value="HDMI" style="text;html=1;align=center;verticalAlign=middle;whiteSpace=wrap;rounded=0;" vertex="1" parent="1">
          <mxGeometry x="600" y="367" width="60" height="30" as="geometry" />
        </mxCell>
        <mxCell id="5K6tSxU4w8xS728KpCYq-15" value="SCREEN" style="rounded=1;whiteSpace=wrap;html=1;fillColor=#f5f5f5;gradientColor=#b3b3b3;strokeColor=#666666;fontStyle=1;fontSize=20;" vertex="1" parent="1">
          <mxGeometry x="295" y="130" width="290" height="150" as="geometry" />
        </mxCell>
        <mxCell id="5K6tSxU4w8xS728KpCYq-17" value="eDP" style="text;html=1;align=center;verticalAlign=middle;whiteSpace=wrap;rounded=0;" vertex="1" parent="1">
          <mxGeometry x="481" y="328" width="43" height="30" as="geometry" />
        </mxCell>
        <mxCell id="5K6tSxU4w8xS728KpCYq-21" value="LED" style="rounded=0;whiteSpace=wrap;html=1;fillColor=none;" vertex="1" parent="1">
          <mxGeometry x="835" y="230" width="40" height="30" as="geometry" />
        </mxCell>
        <mxCell id="5K6tSxU4w8xS728KpCYq-26" value="&lt;div&gt;ON&lt;/div&gt;&lt;div&gt;Button&lt;/div&gt;" style="rounded=0;whiteSpace=wrap;html=1;fillColor=none;" vertex="1" parent="1">
          <mxGeometry x="835" y="270" width="40" height="30" as="geometry" />
        </mxCell>
        <mxCell id="5K6tSxU4w8xS728KpCYq-27" value="&lt;div&gt;OFF&lt;/div&gt;&lt;div&gt;Button&lt;/div&gt;" style="rounded=0;whiteSpace=wrap;html=1;fillColor=none;" vertex="1" parent="1">
          <mxGeometry x="835" y="310" width="40" height="30" as="geometry" />
        </mxCell>
      </root>
    </mxGraphModel>
  </diagram>
  <diagram name="Circuito encendedio" id="OWMgWWhs-BEPjAgd1AtH">
    <mxGraphModel dx="1311" dy="691" grid="1" gridSize="10" guides="1" tooltips="1" connect="1" arrows="1" fold="1" page="1" pageScale="1" pageWidth="850" pageHeight="1100" math="0" shadow="0">
      <root>
        <mxCell id="0" />
        <mxCell id="1" parent="0" />
        <mxCell id="bG3ND1wLml9uPY-YOAnE-1" value="1 k&lt;b&gt;Î©&lt;/b&gt;" style="verticalLabelPosition=bottom;shadow=0;dashed=0;align=center;html=1;verticalAlign=top;strokeWidth=1;shape=mxgraph.electrical.resistors.resistor_2;rounded=1;comic=0;labelBackgroundColor=none;fontFamily=Verdana;fontSize=12;" vertex="1" parent="1">
          <mxGeometry x="286" y="460" width="100" height="20" as="geometry" />
        </mxCell>
        <mxCell id="bG3ND1wLml9uPY-YOAnE-2" value="" style="edgeStyle=orthogonalEdgeStyle;rounded=0;orthogonalLoop=1;jettySize=auto;html=1;endArrow=none;endFill=0;" edge="1" parent="1" source="bG3ND1wLml9uPY-YOAnE-4" target="bG3ND1wLml9uPY-YOAnE-1">
          <mxGeometry relative="1" as="geometry" />
        </mxCell>
        <mxCell id="bG3ND1wLml9uPY-YOAnE-3" style="edgeStyle=orthogonalEdgeStyle;shape=connector;rounded=0;orthogonalLoop=1;jettySize=auto;html=1;exitX=1;exitY=1;exitDx=0;exitDy=0;exitPerimeter=0;strokeColor=default;align=center;verticalAlign=middle;fontFamily=Helvetica;fontSize=11;fontColor=default;labelBackgroundColor=default;endArrow=none;endFill=0;" edge="1" parent="1" source="bG3ND1wLml9uPY-YOAnE-4" target="bG3ND1wLml9uPY-YOAnE-16">
          <mxGeometry relative="1" as="geometry" />
        </mxCell>
        <mxCell id="bG3ND1wLml9uPY-YOAnE-4" value="" style="verticalLabelPosition=bottom;shadow=0;dashed=0;align=center;html=1;verticalAlign=top;shape=mxgraph.electrical.transistors.npn_transistor_5;" vertex="1" parent="1">
          <mxGeometry x="396" y="420" width="64" height="100" as="geometry" />
        </mxCell>
        <mxCell id="bG3ND1wLml9uPY-YOAnE-5" value="" style="edgeStyle=orthogonalEdgeStyle;shape=connector;rounded=0;orthogonalLoop=1;jettySize=auto;html=1;strokeColor=default;align=center;verticalAlign=middle;fontFamily=Helvetica;fontSize=11;fontColor=default;labelBackgroundColor=default;endArrow=none;endFill=0;" edge="1" parent="1" source="bG3ND1wLml9uPY-YOAnE-10" target="bG3ND1wLml9uPY-YOAnE-1">
          <mxGeometry relative="1" as="geometry" />
        </mxCell>
        <mxCell id="bG3ND1wLml9uPY-YOAnE-6" value="GPIO21" style="rounded=1;whiteSpace=wrap;html=1;fontFamily=Helvetica;fontSize=11;fontColor=default;labelBackgroundColor=default;" vertex="1" parent="1">
          <mxGeometry x="134" y="450" width="80" height="40" as="geometry" />
        </mxCell>
        <mxCell id="bG3ND1wLml9uPY-YOAnE-7" value="" style="edgeStyle=orthogonalEdgeStyle;shape=connector;rounded=0;orthogonalLoop=1;jettySize=auto;html=1;strokeColor=default;align=center;verticalAlign=middle;fontFamily=Helvetica;fontSize=11;fontColor=default;labelBackgroundColor=default;endArrow=none;endFill=0;" edge="1" parent="1" source="bG3ND1wLml9uPY-YOAnE-8" target="bG3ND1wLml9uPY-YOAnE-10">
          <mxGeometry relative="1" as="geometry" />
        </mxCell>
        <mxCell id="bG3ND1wLml9uPY-YOAnE-8" value="4.7 k&lt;b&gt;Î©&lt;/b&gt;" style="verticalLabelPosition=bottom;shadow=0;dashed=0;align=center;html=1;verticalAlign=top;strokeWidth=1;shape=mxgraph.electrical.resistors.resistor_2;rounded=1;comic=0;labelBackgroundColor=none;fontFamily=Verdana;fontSize=12;rotation=-90;" vertex="1" parent="1">
          <mxGeometry x="206" y="370" width="100" height="20" as="geometry" />
        </mxCell>
        <mxCell id="bG3ND1wLml9uPY-YOAnE-9" value="" style="edgeStyle=orthogonalEdgeStyle;shape=connector;rounded=0;orthogonalLoop=1;jettySize=auto;html=1;strokeColor=default;align=center;verticalAlign=middle;fontFamily=Helvetica;fontSize=11;fontColor=default;labelBackgroundColor=default;endArrow=none;endFill=0;" edge="1" parent="1" source="bG3ND1wLml9uPY-YOAnE-6" target="bG3ND1wLml9uPY-YOAnE-10">
          <mxGeometry relative="1" as="geometry">
            <mxPoint x="216" y="470" as="sourcePoint" />
            <mxPoint x="286" y="470" as="targetPoint" />
          </mxGeometry>
        </mxCell>
        <mxCell id="bG3ND1wLml9uPY-YOAnE-10" value="" style="shape=waypoint;sketch=0;fillStyle=solid;size=6;pointerEvents=1;points=[];fillColor=none;resizable=0;rotatable=0;perimeter=centerPerimeter;snapToPoint=1;fontFamily=Helvetica;fontSize=11;fontColor=default;labelBackgroundColor=default;" vertex="1" parent="1">
          <mxGeometry x="246" y="460" width="20" height="20" as="geometry" />
        </mxCell>
        <mxCell id="bG3ND1wLml9uPY-YOAnE-11" value="5V" style="rounded=1;whiteSpace=wrap;html=1;fontFamily=Helvetica;fontSize=11;fontColor=default;labelBackgroundColor=default;" vertex="1" parent="1">
          <mxGeometry x="134" y="100" width="80" height="40" as="geometry" />
        </mxCell>
        <mxCell id="bG3ND1wLml9uPY-YOAnE-12" style="edgeStyle=orthogonalEdgeStyle;shape=connector;rounded=0;orthogonalLoop=1;jettySize=auto;html=1;entryX=1;entryY=0.5;entryDx=0;entryDy=0;entryPerimeter=0;strokeColor=default;align=center;verticalAlign=middle;fontFamily=Helvetica;fontSize=11;fontColor=default;labelBackgroundColor=default;endArrow=none;endFill=0;" edge="1" parent="1" source="bG3ND1wLml9uPY-YOAnE-11" target="bG3ND1wLml9uPY-YOAnE-8">
          <mxGeometry relative="1" as="geometry" />
        </mxCell>
        <mxCell id="bG3ND1wLml9uPY-YOAnE-13" value="220 &lt;b&gt;Î©&lt;/b&gt;" style="verticalLabelPosition=bottom;shadow=0;dashed=0;align=center;html=1;verticalAlign=top;strokeWidth=1;shape=mxgraph.electrical.resistors.resistor_2;rounded=1;comic=0;labelBackgroundColor=none;fontFamily=Verdana;fontSize=12;rotation=-90;" vertex="1" parent="1">
          <mxGeometry x="410" y="180" width="100" height="20" as="geometry" />
        </mxCell>
        <mxCell id="bG3ND1wLml9uPY-YOAnE-14" style="edgeStyle=orthogonalEdgeStyle;shape=connector;rounded=0;orthogonalLoop=1;jettySize=auto;html=1;entryX=1;entryY=0.5;entryDx=0;entryDy=0;entryPerimeter=0;strokeColor=default;align=center;verticalAlign=middle;fontFamily=Helvetica;fontSize=11;fontColor=default;labelBackgroundColor=default;endArrow=none;endFill=0;" edge="1" parent="1" source="bG3ND1wLml9uPY-YOAnE-11" target="bG3ND1wLml9uPY-YOAnE-13">
          <mxGeometry relative="1" as="geometry" />
        </mxCell>
        <mxCell id="bG3ND1wLml9uPY-YOAnE-15" style="edgeStyle=orthogonalEdgeStyle;shape=connector;rounded=0;orthogonalLoop=1;jettySize=auto;html=1;exitDx=0;exitDy=0;exitPerimeter=0;entryX=1;entryY=0;entryDx=0;entryDy=0;entryPerimeter=0;strokeColor=default;align=center;verticalAlign=middle;fontFamily=Helvetica;fontSize=11;fontColor=default;labelBackgroundColor=default;endArrow=none;endFill=0;" edge="1" parent="1" source="bG3ND1wLml9uPY-YOAnE-18" target="bG3ND1wLml9uPY-YOAnE-4">
          <mxGeometry relative="1" as="geometry" />
        </mxCell>
        <mxCell id="bG3ND1wLml9uPY-YOAnE-16" value="" style="pointerEvents=1;verticalLabelPosition=bottom;shadow=0;dashed=0;align=center;html=1;verticalAlign=top;shape=mxgraph.electrical.signal_sources.signal_ground;fontFamily=Helvetica;fontSize=11;fontColor=default;labelBackgroundColor=default;" vertex="1" parent="1">
          <mxGeometry x="438" y="620" width="45" height="30" as="geometry" />
        </mxCell>
        <mxCell id="bG3ND1wLml9uPY-YOAnE-17" value="" style="edgeStyle=orthogonalEdgeStyle;shape=connector;rounded=0;orthogonalLoop=1;jettySize=auto;html=1;exitX=1;exitY=0.54;exitDx=0;exitDy=0;exitPerimeter=0;entryDx=0;entryDy=0;entryPerimeter=0;strokeColor=default;align=center;verticalAlign=middle;fontFamily=Helvetica;fontSize=11;fontColor=default;labelBackgroundColor=default;endArrow=none;endFill=0;" edge="1" parent="1" source="bG3ND1wLml9uPY-YOAnE-23" target="bG3ND1wLml9uPY-YOAnE-18">
          <mxGeometry relative="1" as="geometry">
            <mxPoint x="459.9999999999998" y="320" as="sourcePoint" />
            <mxPoint x="461" y="420" as="targetPoint" />
          </mxGeometry>
        </mxCell>
        <mxCell id="bG3ND1wLml9uPY-YOAnE-18" value="" style="shape=waypoint;sketch=0;fillStyle=solid;size=6;pointerEvents=1;points=[];fillColor=none;resizable=0;rotatable=0;perimeter=centerPerimeter;snapToPoint=1;fontFamily=Helvetica;fontSize=11;fontColor=default;labelBackgroundColor=default;" vertex="1" parent="1">
          <mxGeometry x="450" y="370" width="20" height="20" as="geometry" />
        </mxCell>
        <mxCell id="bG3ND1wLml9uPY-YOAnE-19" style="edgeStyle=orthogonalEdgeStyle;shape=connector;rounded=0;orthogonalLoop=1;jettySize=auto;html=1;exitX=0;exitY=0.8;exitDx=0;exitDy=0;strokeColor=default;align=center;verticalAlign=middle;fontFamily=Helvetica;fontSize=11;fontColor=default;labelBackgroundColor=default;endArrow=none;endFill=0;" edge="1" parent="1" source="bG3ND1wLml9uPY-YOAnE-21" target="bG3ND1wLml9uPY-YOAnE-18">
          <mxGeometry relative="1" as="geometry" />
        </mxCell>
        <mxCell id="bG3ND1wLml9uPY-YOAnE-20" style="edgeStyle=orthogonalEdgeStyle;shape=connector;rounded=0;orthogonalLoop=1;jettySize=auto;html=1;exitX=1;exitY=0.8;exitDx=0;exitDy=0;strokeColor=default;align=center;verticalAlign=middle;fontFamily=Helvetica;fontSize=11;fontColor=default;labelBackgroundColor=default;endArrow=none;endFill=0;" edge="1" parent="1" source="bG3ND1wLml9uPY-YOAnE-21" target="bG3ND1wLml9uPY-YOAnE-22">
          <mxGeometry relative="1" as="geometry" />
        </mxCell>
        <mxCell id="bG3ND1wLml9uPY-YOAnE-21" value="" style="html=1;shape=mxgraph.electrical.electro-mechanical.pushbutton;aspect=fixed;elSwitchState=off;fontFamily=Helvetica;fontSize=11;fontColor=default;labelBackgroundColor=default;" vertex="1" parent="1">
          <mxGeometry x="513" y="364" width="75" height="20" as="geometry" />
        </mxCell>
        <mxCell id="bG3ND1wLml9uPY-YOAnE-22" value="RUN" style="rounded=1;whiteSpace=wrap;html=1;fontFamily=Helvetica;fontSize=11;fontColor=default;labelBackgroundColor=default;" vertex="1" parent="1">
          <mxGeometry x="610" y="360" width="80" height="40" as="geometry" />
        </mxCell>
        <mxCell id="bG3ND1wLml9uPY-YOAnE-23" value="" style="verticalLabelPosition=bottom;shadow=0;dashed=0;align=center;html=1;verticalAlign=top;shape=mxgraph.electrical.opto_electronics.led_1;pointerEvents=1;fontFamily=Helvetica;fontSize=11;fontColor=default;labelBackgroundColor=default;rotation=90;" vertex="1" parent="1">
          <mxGeometry x="411.5" y="270" width="100" height="65" as="geometry" />
        </mxCell>
        <mxCell id="bG3ND1wLml9uPY-YOAnE-24" style="edgeStyle=orthogonalEdgeStyle;shape=connector;rounded=0;orthogonalLoop=1;jettySize=auto;html=1;exitX=0;exitY=0.54;exitDx=0;exitDy=0;exitPerimeter=0;entryX=0;entryY=0.5;entryDx=0;entryDy=0;entryPerimeter=0;strokeColor=default;align=center;verticalAlign=middle;fontFamily=Helvetica;fontSize=11;fontColor=default;labelBackgroundColor=default;endArrow=none;endFill=0;" edge="1" parent="1" source="bG3ND1wLml9uPY-YOAnE-23" target="bG3ND1wLml9uPY-YOAnE-13">
          <mxGeometry relative="1" as="geometry" />
        </mxCell>
      </root>
    </mxGraphModel>
  </diagram>
</mxfile>
